# xmcd CD database file
#
# Track frame offsets:
#	150
#	12630
#	27208
#	44682
#	56040
#	71363
#	82281
#	95947
#	112438
#	126548
#	138689
#	150385
#	164086
#	177571
#	195346
#
# Disc length: 2801 seconds
#
# Revision: 0
# Processed by: cddbd v1.4PL0 Copyright (c) Steve Scherf et al.
# Submitted via: CDex 1.50Beta7
#
DISCID=ee0aef0f
DTITLE=Bohém RB - Éjjel az omnibusz tetején
DYEAR=2001
DGENRE=Jazz
TTITLE0=Ujjé, a Ligetben nagyszerû
TTITLE1=Hát nem szép?
TTITLE2=Kék ég
TTITLE3=Szerecsen szerelem
TTITLE4=Gyere Josphin!
TTITLE5=A trubadúr
TTITLE6=Jó volna férjhez menni!
TTITLE7=Los Angeles
TTITLE8=Május van, az orgona virágzik
TTITLE9=Legyen a Horváth-kerben...
TTITLE10=Éjjel az omnibusz tetején
TTITLE11=Sing-sing
TTITLE12=Drágicám, maga de guszta nõ
TTITLE13=Medvetánc
TTITLE14=Az a Helén!
EXTD=YEAR: 2001
EXTT0=
EXTT1=
EXTT2=
EXTT3=
EXTT4=
EXTT5=
EXTT6=
EXTT7=
EXTT8=
EXTT9=
EXTT10=
EXTT11=
EXTT12=
EXTT13=
EXTT14=
PLAYORDER=
